<svg xmlns="http://www.w3.org/2000/svg" viewBox="0 0 558.42 533.01"><defs><style>.cls-1{fill:#003c8c;}.cls-2{fill:#009ee0;}.cls-3{fill:#fff;}</style></defs><title>Recurso 1</title><g id="Capa_2" data-name="Capa 2"><g id="Capa_1-2" data-name="Capa 1"><path id="path2" class="cls-1" d="M533,375.33q-4.65,6.17-13.34,6.17t-13.37-6.17q-4.69-6.16-4.68-17.55t4.68-17.51q4.69-6.13,13.37-6.14T533,340.27q4.65,6.14,4.66,17.51T533,375.33Zm15.83-45.93q-9.57-12-29.11-12t-29.09,12q-9.6,12-9.59,28.38,0,16.67,9.59,28.5t29.09,11.82q19.54,0,29.11-11.82t9.59-28.5Q558.42,341.4,548.83,329.4Z"/><path id="path4" class="cls-1" d="M375,366c-.13,6.64-2,11.22-5.69,13.73a20.79,20.79,0,0,1-12,3.77,11,11,0,0,1-7-2.27q-2.87-2.26-2.86-7.36a9.07,9.07,0,0,1,4.69-8.43c1.85-1.06,4.89-2,9.13-2.7l4.52-.84a33.85,33.85,0,0,0,5.32-1.37A20.27,20.27,0,0,0,375,358.6Zm10.28-43.44a48.48,48.48,0,0,0-22.24-5q-19.26,0-27.16,10-5,6.42-5.61,16.38h19.17a14.3,14.3,0,0,1,2.83-7q3-3.48,10.09-3.48c4.24,0,7.46.58,9.65,1.78s3.28,3.33,3.28,6.44c0,2.56-1.42,4.43-4.28,5.65a31.92,31.92,0,0,1-7.94,1.74l-6.8.83c-7.71,1-13.57,2.61-17.54,4.89q-10.89,6.27-10.89,20.27,0,10.78,6.77,16.68c4.49,3.93,10.22,5.58,17.13,5.9,43.36,1.93,42.86-22.85,43.26-28V341.21q0-13.71-9.72-18.68Z"/><path id="path6" class="cls-1" d="M286.67,334.79q7.41,0,10.92,4.58a16.88,16.88,0,0,1,3,7.63h21.35q-1.76-16.15-11.3-22.54t-24.55-6.38c-11.75,0-21,3.62-27.65,10.82s-10,17.3-10,30.26q0,17.22,9.07,28T285.79,398q19.24,0,29-13A31.93,31.93,0,0,0,321.71,368H300.44a17.93,17.93,0,0,1-3.73,9.71c-2,2.48-5.51,3.74-10.4,3.74q-10.33,0-14.07-9.44c-1.36-3.35-2.06-7.8-2.06-13.34,0-5.8.7-10.45,2.06-14q3.88-9.9,14.43-9.91Z"/><path id="path8" class="cls-1" d="M242.35,317.62c-43.95,0-41.35,38.89-41.35,38.89V396h20V359c0-6.06.77-10.56,2.28-13.49,2.74-5.17,8.07-7.77,16-7.77.6,0,1.39,0,2.35.08s2.08.13,3.34.28V317.76l-1.7-.1a8.77,8.77,0,0,0-1,0Z"/><path id="path10" class="cls-1" d="M142.6,338.29q4.2-4.32,11.82-4.32a17.34,17.34,0,0,1,11.75,4.08q4.71,4.08,5.26,11.95H137.32a20.65,20.65,0,0,1,5.28-11.71ZM169,376a14,14,0,0,1-2.65,2.93c-2.74,2.26-6.47,2.95-10.85,2.95-4.14,0-7.39-.63-10.33-2.48-4.83-3-7.56-8-7.85-15.4H191a98.49,98.49,0,0,0-.64-14.62,36.4,36.4,0,0,0-5.87-15.24,30.16,30.16,0,0,0-12.74-10.91,42.1,42.1,0,0,0-17.32-3.44q-16.21,0-26.36,10.21T117.9,359.37q0,20.43,11.26,29.5a40.16,40.16,0,0,0,26,9.07q17.82,0,27.73-10.75c3.55-3.77,5.78-7.51,6.72-11.19Z"/><path id="path12" class="cls-1" d="M109,396H91V350.16C91,346,89.63,336,77.7,336c-8,0-13.7,5.77-13.7,14.15V396H45V350.16C45,346,43.76,336,31.78,336,23.65,336,18,341.78,18,350.16V396H0V350.59c0-18.92,12.57-33.24,32.05-33.24,9.68,0,17.55,4.06,22.67,10.57a29,29,0,0,1,22.65-10.57c19.89,0,31.63,13.73,31.63,33.24Z"/><path id="path14" class="cls-1" d="M451.2,375.49c-2.91,4.17-7.18,6.25-12.77,6.25s-9.79-2.1-12.54-6.28-4.13-10.3-4.13-17.29c0-6.49,1.34-11.92,4.06-16.29s6.95-6.57,12.74-6.57a15.12,15.12,0,0,1,10,3.61c4.67,4,7,11.13,7,20.39Q455.58,369.24,451.2,375.49ZM475,294.23s-20-2.14-20,13.94l0,21.28a23.83,23.83,0,0,0-8.65-8.34,24.35,24.35,0,0,0-12.19-3q-14.89,0-23.78,11.07c-5.94,7.4-8.89,18-8.89,30.92q0,16.76,9,27.47c6,7.12,17.84,10.25,28.34,10.25,36.58,0,36.16-31.38,36.16-31.38Z"/><path id="path16" class="cls-2" d="M178.51,462.88c0-7.54-1.46-13.32-4.41-17.38s-7.14-6.08-12.62-6.08a14.42,14.42,0,0,0-12.34,6.08c-2.73,3.67-4.09,9.48-4.09,17.38,0,7.35,1.46,12.83,4.4,16.5,2.93,4.06,7.15,6.09,12.62,6.09a14.07,14.07,0,0,0,12-6.09C177.05,475.33,178.51,469.85,178.51,462.88ZM145,517.15a9.35,9.35,0,0,1-2.95,7A9.65,9.65,0,0,1,135,527H125V457.62c0-13.49,4.56-21.94,12.06-27.65,4.95-3.77,12.33-7.37,26.17-7.37,9.34,0,20.27,3.62,26.18,10.8,6.63,8.09,9.39,17.1,9.39,28.87,0,12.17-2.94,22-8.81,29.54q-8.82,11-22.65,11a30.36,30.36,0,0,1-12.93-2.6,21.92,21.92,0,0,1-9.41-9Z"/><path id="path18" class="cls-2" d="M298.17,462.89q0,20,11.54,22.13t17-5.36c1.73-2.11,3-5.45,3.75-10a42.18,42.18,0,0,0,.14-13.45,26.71,26.71,0,0,0-4.75-11.88c-2.49-3.46-6.15-5.21-11-5.21q-9.79,0-13.26,7.23a37.8,37.8,0,0,0-3.46,16.51ZM331,495.83v-4.9a22.48,22.48,0,0,1-14.27,10.13A29.77,29.77,0,0,1,299,499.6q-8.85-3.47-15.17-12.87T277.47,462q0-17.91,8.37-29.07c5.6-7.42,14.57-10.81,26.92-11.14,12.18-.32,19.26,2.38,26.18,7.52,7.58,5.64,12.06,14.29,12.06,27.78v40.82c0,13-9.21,37-38.24,35-18-1.28-28-8.5-33.53-24.89H300.7a15.11,15.11,0,0,0,7.22,6.21,15.33,15.33,0,0,0,9.69,1.16,16.06,16.06,0,0,0,8.84-5.64q4-4.62,4.55-13.9Z"/><path id="path20" class="cls-2" d="M251,470.94c-.12,6.65-2,11.23-5.69,13.74a20.78,20.78,0,0,1-12,3.77,10.92,10.92,0,0,1-7-2.27c-1.92-1.51-2.87-4-2.87-7.37a9.09,9.09,0,0,1,4.7-8.44c1.86-1.07,4.9-2,9.14-2.71l4.53-.84a32.66,32.66,0,0,0,5.33-1.37,19.48,19.48,0,0,0,3.85-1.92Zm10.26-43.44A48.73,48.73,0,0,0,239,422.55q-19.29,0-27.21,10.05-5,6.42-5.61,16.4h19.21a14.39,14.39,0,0,1,2.82-7c2-2.33,5.35-3.49,10.11-3.49,4.26,0,7.47.59,9.67,1.79s3.28,3.33,3.28,6.45c0,2.56-1.42,4.44-4.29,5.65a31.37,31.37,0,0,1-7.95,1.75l-6.81.83c-7.72,1-13.6,2.61-17.57,4.89q-10.9,6.28-10.9,20.31,0,10.8,6.77,16.71c4.51,3.93,10.24,5.59,17.17,5.91,43.41,1.94,42.92-22.89,43.32-28.05V446.21q0-13.75-9.74-18.71Z"/><path id="path22" class="cls-2" d="M410.29,479.87q-4.65,6.19-13.36,6.19t-13.38-6.19c-3.14-4.11-4.71-10-4.71-17.57s1.57-13.44,4.71-17.53,7.59-6.15,13.38-6.15,10.26,2,13.36,6.15S415,454.71,415,462.3,413.4,475.76,410.29,479.87Zm15.86-46q-9.6-12-29.16-12t-29.14,12q-9.62,12-9.61,28.42c0,11.13,3.2,20.62,9.61,28.54S384,502.69,397,502.69s22.76-4,29.16-11.85,9.6-17.41,9.6-28.54Q435.75,445.89,426.15,433.88Z"/><g id="Layer1000"><path id="path24" class="cls-1" d="M454,124.35V131c0,66.52-67.47,120.37-174,120.37-82,0-141.29-32.28-163.91-77.72A95.08,95.08,0,0,1,106,131c0-.57,0-5,0-6.66s0-3.16.15-4.72C108,90.2,127,63.59,156.83,44A195.7,195.7,0,0,1,209.9,20.19,253.27,253.27,0,0,1,280,10.54c96.09,0,174,51.11,174,113.81Z"/><path id="path26" class="cls-2" d="M447,124.29c0,59.1-74.89,107-167.27,107-64.34,0-120.2-23.25-148.18-57.33-12-14.61-18.85-31.21-19.06-48.83,0-.28,0-.56,0-.84,0-32.92,23.24-62.37,59.8-82q3.18-1.71,6.5-3.32,5.19-2.52,10.67-4.77,9.19-3.78,19.19-6.79a247.77,247.77,0,0,1,71.1-10.12c92.38,0,167.26,47.9,167.26,107Z"/><path id="path28" class="cls-1" d="M280.8,162.79c-.29,13.73-7.93,17.63-17.49,19.51s-30.95,3-51.4,3.77-39.45-1.9-49.14-3.26-20-4.19-22.65-4.19S136,180.15,132,185a90.82,90.82,0,0,1-15.76-10.14A96.39,96.39,0,0,1,106,131.58c0-.59,0-5.13,0-6.77s0-3.2.15-4.78c4.34-1,11.38-1.69,22.72-2.18,18.56-.81,31,.88,54.51,7.74s33.88,11.19,33.88,11.19c-2.56-8.75-2.66-21.27-2.12-34.86s-.1-22.24-2.71-30.76a173.39,173.39,0,0,0-6.06-16.29,65.43,65.43,0,0,1-7.4.54c-4.84.13-11-1.59-16.89-4.55s-11.75-4.49-20.78-6.35a17.33,17.33,0,0,1-3.74-1.19c-5.71-2.63-6.13-7.69-4.2-11.32,2.28-4.31,7.66-4.18,7.66-4.18s-2.15-1.88-1.88-5.92,4.58-8.07,8.35-10.76S176.12,5,181,1.85A11.65,11.65,0,0,1,187.32,0a10.61,10.61,0,0,1,6.15,1.85c2.29,1.75,4.85,4.17,10.64,10,1.89,1.89,4.45,4.42,7.32,7.31,5.89,6,13,13.53,18.11,20.41,7.54,10.23,14.27,24.22,19.24,36.33s18,41.32,21.67,49.93,10.63,23.28,10.35,37Z"/><path id="path30" class="cls-3" d="M272.63,170.87c-4.47,5-10.92,6.53-22.11,7.19-9.65.56-26.84,2.19-35.45,2.08s-18.11-.06-35.24-1.64c-28.26-2.62-33.55-6.1-40.09-6.21a11.51,11.51,0,0,0-7.78,2.88c-12.17-14.83-19.14-31.68-19.35-49.56,15.32-2,33.63-2.9,63.08,4.13,33.65,8,51.66,18.89,51.66,18.89s-4.06-6.84-5.15-20.89-.22-39.33-2.07-50.65S213.92,57.48,211,51.93c-3.16-3.92-7.52-2.07-11.11-2.07s-13.4-3.38-17.21-5.67c-1.72-1-5.52-1.92-9.37-2.66-4.71-.89-9.48-1.55-10.56-1.91-2-.66-5.56-2.18-4-5.34s8.82-.32,12.41,1.53c3.28,1.69,5,3.47,8.78,2.36.36-.11.74-.24,1.13-.4,4.58-1.85,6.32-2.73,8.61-.22s5.55,6.75,8.17,7.08a13,13,0,0,0,4.57-.22s-8.27-7.48-11.66-11.09l-.42-.46c-3.06-3.37-4.33-6-2.48-9a24.38,24.38,0,0,0,2-3.73,13.56,13.56,0,0,0-3,1.77c-1,.73-3.47,2.42-3.47,2.42a4.18,4.18,0,0,1-2.71-2.45c-.61-1.89-1.41-4.58-1.41-4.58a18.48,18.48,0,0,0-1,7.31s-.72,1.05-3.88.75a4.94,4.94,0,0,0,3.52,1.42s-.07,1.92-.14,2.87a5.57,5.57,0,0,0,2.43-1.81,2.09,2.09,0,0,1,3.23-.15,16.39,16.39,0,0,1,2.26,3.71c.25.86-1.42,1.59-3.24,2s-3.74,1.38-5.66,1A12.9,12.9,0,0,1,170,29.74c-2.21-2.68-5.63-5.63-5.59-7.84s7-6.5,10.28-8.68,8.35-5.66,9.26-6.39,3.88-2.61,7.26.73c2.65,2.62,13,13,19,18.86L213.81,30c3.27,3.27,10.32,11.11,13.54,17s17.28,34.75,23.49,48.7,19.5,45.74,21.79,52.06S277.1,165.86,272.63,170.87Z"/><path id="path32" class="cls-1" d="M279.56,162.65c.28,13.7,7.91,17.6,17.44,19.47s30.89,3,51.31,3.77,39.36-1.91,49-3.26,19.91-4.18,22.6-4.18,4.1,1.53,8.12,6.36a90.67,90.67,0,0,0,15.73-10.12A96.26,96.26,0,0,0,454,131.5c0-.58,0-5.11,0-6.75s-.05-3.19-.15-4.78c-4.33-1-11.36-1.68-22.67-2.17-18.53-.81-30.9.87-54.4,7.73S343,136.69,343,136.69c2.55-8.73,2.65-21.22,2.11-34.78s.11-22.21,2.71-30.71a172.48,172.48,0,0,1,6-16.25,65.36,65.36,0,0,0,7.39.54c4.83.13,10.94-1.59,16.85-4.55s11.73-4.47,20.75-6.33a17.41,17.41,0,0,0,3.73-1.19c5.69-2.63,6.12-7.67,4.19-11.3-2.28-4.3-7.65-4.17-7.65-4.17S401.21,26.07,401,22s-4.57-8-8.33-10.74S384,5.13,379.19,2a11.42,11.42,0,0,0-12.48,0c-2.29,1.74-4.84,4.16-10.62,9.94-1.89,1.88-4.44,4.4-7.3,7.29-5.88,6-13,13.5-18.08,20.37-7.52,10.21-14.23,24.17-19.2,36.26s-18,41.23-21.63,49.82-10.6,23.24-10.32,36.93Z"/><path id="path34" class="cls-3" d="M287.22,170.71c4.46,5,10.9,6.52,22.07,7.18,9.62.56,26.78,2.18,35.37,2.07s18.08-.06,35.18-1.64c28.2-2.61,33.48-6.08,40-6.19a11.53,11.53,0,0,1,7.77,2.87c12.14-14.79,19.1-31.61,19.31-49.46-15.29-1.94-33.56-2.89-62.95,4.13-33.58,8-51.56,18.84-51.56,18.84s4-6.82,5.14-20.84.22-39.25,2.07-50.55,6.19-19.57,9.13-25.11c3.15-3.91,7.5-2.07,11.09-2.07s13.37-3.36,17.17-5.65c1.72-1,5.51-1.91,9.35-2.65,4.7-.9,9.47-1.55,10.54-1.91,2-.66,5.55-2.18,4-5.33s-8.81-.33-12.4,1.52c-3.27,1.69-5,3.47-8.76,2.36-.35-.11-.73-.24-1.13-.4-4.56-1.85-6.3-2.72-8.59-.22s-5.54,6.74-8.15,7.06a12.84,12.84,0,0,1-4.57-.21S365.6,37,369,33.44l.43-.46c3.05-3.36,4.31-6,2.47-8.95a22.65,22.65,0,0,1-1.95-3.72,13.39,13.39,0,0,1,3,1.77c1,.73,3.46,2.41,3.46,2.41a4.15,4.15,0,0,0,2.7-2.45c.62-1.88,1.41-4.56,1.41-4.56a18.36,18.36,0,0,1,1,7.28s.72,1,3.87.76a4.87,4.87,0,0,1-3.51,1.41s.07,1.93.14,2.87A5.57,5.57,0,0,1,379.58,28a2.09,2.09,0,0,0-3.22-.15,16.5,16.5,0,0,0-2.25,3.7c-.25.87,1.42,1.59,3.23,2s3.73,1.38,5.65,1a12.9,12.9,0,0,0,6.63-4.64c2.21-2.68,5.62-5.62,5.58-7.83s-7-6.48-10.25-8.66S376.61,7.73,375.71,7s-3.88-2.61-7.25.72c-2.65,2.62-13,12.93-18.93,18.83l-3.61,3.6c-3.26,3.26-10.3,11.09-13.51,17S315.16,81.8,309,95.71s-19.46,45.66-21.74,52-4.46,18,0,23Z"/></g></g></g></svg>